<?xml version="1.0" standalone="no"?>
<!DOCTYPE svg PUBLIC "-//W3C//DTD SVG 20010904//EN"
 "http://www.w3.org/TR/2001/REC-SVG-20010904/DTD/svg10.dtd">
<svg version="1.0" xmlns="http://www.w3.org/2000/svg"
 width="793.000000pt" height="793.000000pt" viewBox="0 0 793.000000 793.000000"
 preserveAspectRatio="xMidYMid meet">

<g transform="translate(0.000000,793.000000) scale(0.100000,-0.100000)"
fill="#ef5350" stroke="none">
<path d="M1841 6728 c-256 -36 -489 -207 -605 -443 -89 -179 -80 54 -84 -2285
-2 -1861 -1 -2083 13 -2154 51 -253 211 -457 449 -571 181 -87 -22 -80 2356
-80 l2105 0 85 23 c317 84 546 325 606 640 21 113 21 4124 -1 4227 -62 293
-267 519 -555 613 -36 12 -96 26 -135 32 -90 12 -4144 11 -4234 -2z m3623
-1485 l290 -292 -507 -507 -508 -508 496 -489 c272 -269 495 -492 495 -496 0
-7 -475 -481 -648 -647 -52 -49 -96 -91 -98 -93 -3 -3 -225 215 -494 484
l-489 489 -103 -99 c-57 -55 -282 -275 -501 -490 -219 -214 -402 -391 -407
-393 -7 -3 -780 734 -780 743 0 1 118 119 262 261 145 143 370 365 500 494
131 129 238 237 238 240 0 4 -225 240 -500 526 -275 285 -499 522 -497 525 3
8 736 703 746 707 3 1 229 -227 501 -507 l495 -509 210 212 c116 117 347 353
515 525 l304 312 95 -98 c52 -54 226 -229 385 -390z"/>
</g>
</svg>
